<?xml version="1.0" standalone="no"?>
<!DOCTYPE svg PUBLIC "-//W3C//DTD SVG 20010904//EN"
 "http://www.w3.org/TR/2001/REC-SVG-20010904/DTD/svg10.dtd">
<svg version="1.0" xmlns="http://www.w3.org/2000/svg"
 width="424.000000pt" height="441.000000pt" viewBox="0 0 424.000000 441.000000"
 preserveAspectRatio="xMidYMid meet">
<metadata>
Created by potrace 1.16, written by Peter Selinger 2001-2019
</metadata>
<g transform="translate(0.000000,441.000000) scale(0.100000,-0.100000)"
fill="#000000" stroke="none">
<path fill="#F5F5F5" d="M2850 4286 c-132 -24 -212 -47 -343 -98 l-128 -51 -152 51 c-200 68
-343 92 -540 92 -360 0 -639 -89 -942 -298 -100 -69 -282 -251 -357 -357 -125
-177 -220 -398 -270 -625 -19 -91 -22 -134 -22 -320 0 -184 3 -229 22 -313 60
-271 168 -495 326 -682 33 -38 210 -222 394 -407 l335 -337 -18 -63 c-26 -91
-31 -237 -11 -322 51 -218 241 -405 467 -460 127 -31 289 -12 406 48 72 36
162 111 218 180 89 112 128 231 127 386 -2 168 -59 297 -187 426 -123 124
-245 174 -425 174 -152 0 -263 -35 -369 -116 -24 -19 -49 -34 -55 -34 -6 0
-164 154 -351 343 -357 359 -406 417 -490 584 -96 193 -138 374 -138 598 0
436 188 817 529 1073 220 166 467 256 734 268 233 11 393 -18 624 -112 61 -25
125 -46 141 -47 17 0 95 28 175 62 171 74 253 97 407 112 133 14 310 1 438
-31 145 -37 346 -137 433 -216 l45 -40 -87 -97 -88 -97 -62 36 c-300 175 -598
210 -887 104 -100 -36 -169 -74 -276 -151 -45 -32 -84 -59 -87 -59 -3 0 -43
25 -88 57 -130 89 -290 156 -436 184 -93 17 -359 6 -442 -19 -368 -110 -634
-368 -744 -721 -37 -118 -49 -218 -43 -351 12 -234 93 -442 241 -620 111 -132
506 -517 551 -536 46 -19 103 -3 138 38 21 25 27 42 27 81 l0 49 -253 257
c-140 141 -273 281 -296 310 -52 67 -92 144 -121 236 -32 99 -39 293 -15 399
68 310 285 532 596 612 82 21 267 21 369 0 82 -17 235 -89 291 -135 l34 -29
-145 -149 -145 -148 -110 0 c-106 0 -112 -1 -167 -33 -107 -62 -162 -158 -162
-282 0 -97 28 -162 95 -225 71 -66 126 -88 224 -89 95 -1 155 23 222 90 78 79
106 170 90 295 l-8 67 213 210 c337 331 391 373 553 428 114 39 286 45 406 15
155 -39 293 -123 419 -257 158 -168 219 -320 220 -544 0 -122 -15 -193 -66
-299 -54 -115 -106 -180 -320 -398 l-199 -202 -91 6 c-121 8 -174 -10 -253
-83 -78 -72 -102 -128 -102 -236 0 -98 28 -164 95 -226 75 -69 119 -87 216
-87 101 0 154 20 224 85 83 76 115 183 93 311 l-8 46 194 199 c107 110 213
221 236 247 152 176 228 364 238 589 12 245 -59 467 -216 683 -28 38 -50 73
-49 76 2 4 58 67 124 141 176 194 188 220 139 304 -65 111 -379 318 -590 389
-148 50 -256 67 -450 70 -130 3 -214 0 -265 -9z m-999 -1525 c42 -42 40 -92
-5 -137 -19 -19 -44 -34 -55 -34 -38 0 -82 30 -97 66 -12 29 -12 39 0 68 29
70 105 88 157 37z m1400 -1220 c55 -56 29 -153 -45 -167 -95 -17 -155 98 -87
167 22 21 39 29 66 29 27 0 44 -8 66 -29z m-1359 -513 c79 -36 142 -98 181
-177 29 -59 32 -75 32 -151 0 -105 -29 -173 -105 -254 -75 -79 -130 -101 -255
-101 -118 0 -163 17 -249 96 -79 72 -101 128 -101 259 0 96 2 110 29 163 47
92 134 160 241 188 58 15 167 4 227 -23z"/>
<path fill="#F5F5F5"  d="M1725 913 c-81 -18 -142 -58 -170 -112 -41 -81 -23 -190 43 -253 52
-50 79 -61 144 -61 77 1 143 34 182 91 40 57 48 149 18 208 -43 83 -146 144
-217 127z"/>
</g>
</svg>
